<mxfile host="app.diagrams.net" modified="2023-11-22T07:01:52.865Z" agent="Mozilla/5.0 (Windows NT 10.0; Win64; x64) AppleWebKit/537.36 (KHTML, like Gecko) Chrome/119.0.0.0 Safari/537.36" etag="lKCnDyCnUKlvEwl8u-WN" version="22.1.3" type="device">
  <diagram name="Page-1" id="bfBIeI1fTVQYgnz84p6c">
    <mxGraphModel dx="1720" dy="932" grid="1" gridSize="10" guides="1" tooltips="1" connect="1" arrows="1" fold="1" page="1" pageScale="1" pageWidth="850" pageHeight="1100" math="0" shadow="0">
      <root>
        <mxCell id="0" />
        <mxCell id="1" parent="0" />
        <mxCell id="aimmLDqsC0-W3VsYiJ3I-3" value="" style="edgeStyle=orthogonalEdgeStyle;rounded=0;orthogonalLoop=1;jettySize=auto;html=1;" edge="1" parent="1" source="aimmLDqsC0-W3VsYiJ3I-1" target="aimmLDqsC0-W3VsYiJ3I-2">
          <mxGeometry relative="1" as="geometry" />
        </mxCell>
        <mxCell id="aimmLDqsC0-W3VsYiJ3I-1" value="tampilkanMahasiswaNilaiTerendah(String[][] dataMahasiswa)" style="ellipse;whiteSpace=wrap;html=1;" vertex="1" parent="1">
          <mxGeometry x="130" y="100" width="250" height="80" as="geometry" />
        </mxCell>
        <mxCell id="aimmLDqsC0-W3VsYiJ3I-5" value="" style="edgeStyle=orthogonalEdgeStyle;rounded=0;orthogonalLoop=1;jettySize=auto;html=1;" edge="1" parent="1" source="aimmLDqsC0-W3VsYiJ3I-2" target="aimmLDqsC0-W3VsYiJ3I-4">
          <mxGeometry relative="1" as="geometry" />
        </mxCell>
        <mxCell id="aimmLDqsC0-W3VsYiJ3I-2" value="int nilaiTerendah" style="rounded=0;whiteSpace=wrap;html=1;" vertex="1" parent="1">
          <mxGeometry x="195" y="230" width="120" height="60" as="geometry" />
        </mxCell>
        <mxCell id="aimmLDqsC0-W3VsYiJ3I-7" value="" style="edgeStyle=orthogonalEdgeStyle;rounded=0;orthogonalLoop=1;jettySize=auto;html=1;" edge="1" parent="1" source="aimmLDqsC0-W3VsYiJ3I-4" target="aimmLDqsC0-W3VsYiJ3I-6">
          <mxGeometry relative="1" as="geometry" />
        </mxCell>
        <mxCell id="aimmLDqsC0-W3VsYiJ3I-29" value="" style="edgeStyle=orthogonalEdgeStyle;rounded=0;orthogonalLoop=1;jettySize=auto;html=1;entryX=0.5;entryY=0;entryDx=0;entryDy=0;" edge="1" parent="1" source="aimmLDqsC0-W3VsYiJ3I-4" target="aimmLDqsC0-W3VsYiJ3I-28">
          <mxGeometry relative="1" as="geometry">
            <Array as="points">
              <mxPoint x="50" y="410" />
            </Array>
          </mxGeometry>
        </mxCell>
        <mxCell id="aimmLDqsC0-W3VsYiJ3I-4" value="String[] row:dataMahasiswa" style="rhombus;whiteSpace=wrap;html=1;rounded=0;" vertex="1" parent="1">
          <mxGeometry x="172.5" y="350" width="165" height="120" as="geometry" />
        </mxCell>
        <mxCell id="aimmLDqsC0-W3VsYiJ3I-9" value="" style="edgeStyle=orthogonalEdgeStyle;rounded=0;orthogonalLoop=1;jettySize=auto;html=1;" edge="1" parent="1" source="aimmLDqsC0-W3VsYiJ3I-6" target="aimmLDqsC0-W3VsYiJ3I-8">
          <mxGeometry relative="1" as="geometry" />
        </mxCell>
        <mxCell id="aimmLDqsC0-W3VsYiJ3I-6" value="int&amp;nbsp; j=1" style="whiteSpace=wrap;html=1;rounded=0;" vertex="1" parent="1">
          <mxGeometry x="212.5" y="510" width="85" height="20" as="geometry" />
        </mxCell>
        <mxCell id="aimmLDqsC0-W3VsYiJ3I-11" value="" style="edgeStyle=orthogonalEdgeStyle;rounded=0;orthogonalLoop=1;jettySize=auto;html=1;" edge="1" parent="1" source="aimmLDqsC0-W3VsYiJ3I-8" target="aimmLDqsC0-W3VsYiJ3I-10">
          <mxGeometry relative="1" as="geometry" />
        </mxCell>
        <mxCell id="aimmLDqsC0-W3VsYiJ3I-27" value="" style="edgeStyle=orthogonalEdgeStyle;rounded=0;orthogonalLoop=1;jettySize=auto;html=1;" edge="1" parent="1" source="aimmLDqsC0-W3VsYiJ3I-8">
          <mxGeometry relative="1" as="geometry">
            <mxPoint x="255" y="320" as="targetPoint" />
            <Array as="points">
              <mxPoint x="460" y="605" />
              <mxPoint x="460" y="320" />
            </Array>
          </mxGeometry>
        </mxCell>
        <mxCell id="aimmLDqsC0-W3VsYiJ3I-8" value="j&amp;lt;row.length" style="rhombus;whiteSpace=wrap;html=1;rounded=0;" vertex="1" parent="1">
          <mxGeometry x="187.5" y="570" width="135" height="70" as="geometry" />
        </mxCell>
        <mxCell id="aimmLDqsC0-W3VsYiJ3I-17" value="" style="edgeStyle=orthogonalEdgeStyle;rounded=0;orthogonalLoop=1;jettySize=auto;html=1;" edge="1" parent="1" source="aimmLDqsC0-W3VsYiJ3I-10" target="aimmLDqsC0-W3VsYiJ3I-16">
          <mxGeometry relative="1" as="geometry" />
        </mxCell>
        <mxCell id="aimmLDqsC0-W3VsYiJ3I-10" value="int nilai=Integer.parseInt" style="whiteSpace=wrap;html=1;rounded=0;" vertex="1" parent="1">
          <mxGeometry x="177.5" y="670" width="155" height="55" as="geometry" />
        </mxCell>
        <mxCell id="aimmLDqsC0-W3VsYiJ3I-19" value="" style="edgeStyle=orthogonalEdgeStyle;rounded=0;orthogonalLoop=1;jettySize=auto;html=1;" edge="1" parent="1" source="aimmLDqsC0-W3VsYiJ3I-16" target="aimmLDqsC0-W3VsYiJ3I-18">
          <mxGeometry relative="1" as="geometry" />
        </mxCell>
        <mxCell id="aimmLDqsC0-W3VsYiJ3I-25" value="" style="edgeStyle=orthogonalEdgeStyle;rounded=0;orthogonalLoop=1;jettySize=auto;html=1;entryX=0.217;entryY=0.35;entryDx=0;entryDy=0;entryPerimeter=0;exitX=0;exitY=0.5;exitDx=0;exitDy=0;" edge="1" parent="1" source="aimmLDqsC0-W3VsYiJ3I-16" target="aimmLDqsC0-W3VsYiJ3I-24">
          <mxGeometry relative="1" as="geometry">
            <mxPoint x="159.99702702702697" y="816.9249249249249" as="sourcePoint" />
            <mxPoint x="224.97" y="550" as="targetPoint" />
            <Array as="points">
              <mxPoint x="160" y="819" />
              <mxPoint x="160" y="550" />
            </Array>
          </mxGeometry>
        </mxCell>
        <mxCell id="aimmLDqsC0-W3VsYiJ3I-16" value="nilai&amp;lt;nilaiTerendah" style="rhombus;whiteSpace=wrap;html=1;rounded=0;" vertex="1" parent="1">
          <mxGeometry x="187.5" y="770" width="135" height="97.5" as="geometry" />
        </mxCell>
        <mxCell id="aimmLDqsC0-W3VsYiJ3I-21" value="" style="edgeStyle=orthogonalEdgeStyle;rounded=0;orthogonalLoop=1;jettySize=auto;html=1;" edge="1" parent="1" source="aimmLDqsC0-W3VsYiJ3I-18" target="aimmLDqsC0-W3VsYiJ3I-20">
          <mxGeometry relative="1" as="geometry" />
        </mxCell>
        <mxCell id="aimmLDqsC0-W3VsYiJ3I-18" value="nilaiTerendah=nilai" style="whiteSpace=wrap;html=1;rounded=0;" vertex="1" parent="1">
          <mxGeometry x="195" y="910" width="120" height="60" as="geometry" />
        </mxCell>
        <mxCell id="aimmLDqsC0-W3VsYiJ3I-23" value="" style="edgeStyle=orthogonalEdgeStyle;rounded=0;orthogonalLoop=1;jettySize=auto;html=1;" edge="1" parent="1" source="aimmLDqsC0-W3VsYiJ3I-20" target="aimmLDqsC0-W3VsYiJ3I-22">
          <mxGeometry relative="1" as="geometry">
            <Array as="points">
              <mxPoint x="440" y="750" />
            </Array>
          </mxGeometry>
        </mxCell>
        <mxCell id="aimmLDqsC0-W3VsYiJ3I-20" value="j++" style="whiteSpace=wrap;html=1;rounded=0;" vertex="1" parent="1">
          <mxGeometry x="380" y="780" width="120" height="60" as="geometry" />
        </mxCell>
        <mxCell id="aimmLDqsC0-W3VsYiJ3I-22" value="" style="shape=waypoint;sketch=0;size=6;pointerEvents=1;points=[];fillColor=default;resizable=0;rotatable=0;perimeter=centerPerimeter;snapToPoint=1;rounded=0;" vertex="1" parent="1">
          <mxGeometry x="245" y="740" width="20" height="20" as="geometry" />
        </mxCell>
        <mxCell id="aimmLDqsC0-W3VsYiJ3I-24" value="" style="shape=waypoint;sketch=0;size=6;pointerEvents=1;points=[];fillColor=default;resizable=0;rotatable=0;perimeter=centerPerimeter;snapToPoint=1;rounded=0;" vertex="1" parent="1">
          <mxGeometry x="245" y="540" width="20" height="20" as="geometry" />
        </mxCell>
        <mxCell id="aimmLDqsC0-W3VsYiJ3I-26" value="" style="shape=waypoint;sketch=0;size=6;pointerEvents=1;points=[];fillColor=default;resizable=0;rotatable=0;perimeter=centerPerimeter;snapToPoint=1;rounded=0;" vertex="1" parent="1">
          <mxGeometry x="245" y="310" width="20" height="20" as="geometry" />
        </mxCell>
        <mxCell id="aimmLDqsC0-W3VsYiJ3I-31" value="" style="edgeStyle=orthogonalEdgeStyle;rounded=0;orthogonalLoop=1;jettySize=auto;html=1;" edge="1" parent="1" source="aimmLDqsC0-W3VsYiJ3I-28" target="aimmLDqsC0-W3VsYiJ3I-30">
          <mxGeometry relative="1" as="geometry" />
        </mxCell>
        <mxCell id="aimmLDqsC0-W3VsYiJ3I-28" value="mahasiswa yang memiliki nilai terendah" style="shape=parallelogram;perimeter=parallelogramPerimeter;whiteSpace=wrap;html=1;fixedSize=1;rounded=0;" vertex="1" parent="1">
          <mxGeometry x="-20" y="530" width="140" height="70" as="geometry" />
        </mxCell>
        <mxCell id="aimmLDqsC0-W3VsYiJ3I-33" value="" style="edgeStyle=orthogonalEdgeStyle;rounded=0;orthogonalLoop=1;jettySize=auto;html=1;" edge="1" parent="1" source="aimmLDqsC0-W3VsYiJ3I-30" target="aimmLDqsC0-W3VsYiJ3I-32">
          <mxGeometry relative="1" as="geometry" />
        </mxCell>
        <mxCell id="aimmLDqsC0-W3VsYiJ3I-30" value="String[] row:dataMahasiswa" style="rhombus;whiteSpace=wrap;html=1;rounded=0;" vertex="1" parent="1">
          <mxGeometry x="-15" y="645" width="130" height="105" as="geometry" />
        </mxCell>
        <mxCell id="aimmLDqsC0-W3VsYiJ3I-44" value="" style="edgeStyle=orthogonalEdgeStyle;rounded=0;orthogonalLoop=1;jettySize=auto;html=1;" edge="1" parent="1" source="aimmLDqsC0-W3VsYiJ3I-32" target="aimmLDqsC0-W3VsYiJ3I-34">
          <mxGeometry relative="1" as="geometry" />
        </mxCell>
        <mxCell id="aimmLDqsC0-W3VsYiJ3I-32" value="int j=1" style="whiteSpace=wrap;html=1;rounded=0;" vertex="1" parent="1">
          <mxGeometry y="807.5" width="100" height="42.5" as="geometry" />
        </mxCell>
        <mxCell id="aimmLDqsC0-W3VsYiJ3I-37" value="" style="edgeStyle=orthogonalEdgeStyle;rounded=0;orthogonalLoop=1;jettySize=auto;html=1;" edge="1" parent="1" source="aimmLDqsC0-W3VsYiJ3I-34" target="aimmLDqsC0-W3VsYiJ3I-36">
          <mxGeometry relative="1" as="geometry" />
        </mxCell>
        <mxCell id="aimmLDqsC0-W3VsYiJ3I-60" value="" style="edgeStyle=orthogonalEdgeStyle;rounded=0;orthogonalLoop=1;jettySize=auto;html=1;" edge="1" parent="1" source="aimmLDqsC0-W3VsYiJ3I-34" target="aimmLDqsC0-W3VsYiJ3I-59">
          <mxGeometry relative="1" as="geometry" />
        </mxCell>
        <mxCell id="aimmLDqsC0-W3VsYiJ3I-34" value="j&amp;lt;row.length" style="rhombus;whiteSpace=wrap;html=1;rounded=0;" vertex="1" parent="1">
          <mxGeometry x="10" y="911.25" width="80" height="80" as="geometry" />
        </mxCell>
        <mxCell id="aimmLDqsC0-W3VsYiJ3I-48" value="" style="edgeStyle=orthogonalEdgeStyle;rounded=0;orthogonalLoop=1;jettySize=auto;html=1;" edge="1" parent="1" source="aimmLDqsC0-W3VsYiJ3I-36" target="aimmLDqsC0-W3VsYiJ3I-47">
          <mxGeometry relative="1" as="geometry" />
        </mxCell>
        <mxCell id="aimmLDqsC0-W3VsYiJ3I-36" value="int nilai=Integer.parseInt" style="whiteSpace=wrap;html=1;rounded=0;" vertex="1" parent="1">
          <mxGeometry x="-10" y="1040" width="120" height="60" as="geometry" />
        </mxCell>
        <mxCell id="aimmLDqsC0-W3VsYiJ3I-50" value="" style="edgeStyle=orthogonalEdgeStyle;rounded=0;orthogonalLoop=1;jettySize=auto;html=1;" edge="1" parent="1" source="aimmLDqsC0-W3VsYiJ3I-47" target="aimmLDqsC0-W3VsYiJ3I-49">
          <mxGeometry relative="1" as="geometry" />
        </mxCell>
        <mxCell id="aimmLDqsC0-W3VsYiJ3I-47" value="Nilai == nilaiTerendah" style="whiteSpace=wrap;html=1;rounded=0;" vertex="1" parent="1">
          <mxGeometry x="-10" y="1140" width="120" height="60" as="geometry" />
        </mxCell>
        <mxCell id="aimmLDqsC0-W3VsYiJ3I-56" value="" style="edgeStyle=orthogonalEdgeStyle;rounded=0;orthogonalLoop=1;jettySize=auto;html=1;" edge="1" parent="1" source="aimmLDqsC0-W3VsYiJ3I-49" target="aimmLDqsC0-W3VsYiJ3I-55">
          <mxGeometry relative="1" as="geometry" />
        </mxCell>
        <mxCell id="aimmLDqsC0-W3VsYiJ3I-49" value="row[]+pada minggu ke-+j" style="shape=parallelogram;perimeter=parallelogramPerimeter;whiteSpace=wrap;html=1;fixedSize=1;rounded=0;" vertex="1" parent="1">
          <mxGeometry x="-10" y="1250" width="120" height="60" as="geometry" />
        </mxCell>
        <mxCell id="aimmLDqsC0-W3VsYiJ3I-58" value="" style="edgeStyle=orthogonalEdgeStyle;rounded=0;orthogonalLoop=1;jettySize=auto;html=1;" edge="1" parent="1" source="aimmLDqsC0-W3VsYiJ3I-55" target="aimmLDqsC0-W3VsYiJ3I-57">
          <mxGeometry relative="1" as="geometry">
            <Array as="points">
              <mxPoint x="170" y="878" />
            </Array>
          </mxGeometry>
        </mxCell>
        <mxCell id="aimmLDqsC0-W3VsYiJ3I-55" value="j++" style="whiteSpace=wrap;html=1;rounded=0;" vertex="1" parent="1">
          <mxGeometry x="130" y="1110" width="80" height="30" as="geometry" />
        </mxCell>
        <mxCell id="aimmLDqsC0-W3VsYiJ3I-57" value="" style="shape=waypoint;sketch=0;size=6;pointerEvents=1;points=[];fillColor=default;resizable=0;rotatable=0;perimeter=centerPerimeter;snapToPoint=1;rounded=0;" vertex="1" parent="1">
          <mxGeometry x="40" y="867.5" width="20" height="20" as="geometry" />
        </mxCell>
        <mxCell id="aimmLDqsC0-W3VsYiJ3I-59" value="return" style="ellipse;whiteSpace=wrap;html=1;" vertex="1" parent="1">
          <mxGeometry x="-170" y="931.25" width="80" height="40" as="geometry" />
        </mxCell>
        <mxCell id="aimmLDqsC0-W3VsYiJ3I-61" value="tampilkanMahasiswaNilaiTerendah" style="text;html=1;strokeColor=none;fillColor=none;align=center;verticalAlign=middle;whiteSpace=wrap;rounded=0;" vertex="1" parent="1">
          <mxGeometry x="225" y="40" width="60" height="30" as="geometry" />
        </mxCell>
        <mxCell id="aimmLDqsC0-W3VsYiJ3I-62" value="main()" style="text;html=1;strokeColor=none;fillColor=none;align=center;verticalAlign=middle;whiteSpace=wrap;rounded=0;" vertex="1" parent="1">
          <mxGeometry x="-730" y="70" width="60" height="30" as="geometry" />
        </mxCell>
        <mxCell id="aimmLDqsC0-W3VsYiJ3I-66" value="" style="edgeStyle=orthogonalEdgeStyle;rounded=0;orthogonalLoop=1;jettySize=auto;html=1;" edge="1" parent="1" source="aimmLDqsC0-W3VsYiJ3I-63" target="aimmLDqsC0-W3VsYiJ3I-65">
          <mxGeometry relative="1" as="geometry" />
        </mxCell>
        <mxCell id="aimmLDqsC0-W3VsYiJ3I-63" value="start" style="ellipse;whiteSpace=wrap;html=1;" vertex="1" parent="1">
          <mxGeometry x="-740" y="110" width="80" height="45" as="geometry" />
        </mxCell>
        <mxCell id="aimmLDqsC0-W3VsYiJ3I-69" value="" style="edgeStyle=orthogonalEdgeStyle;rounded=0;orthogonalLoop=1;jettySize=auto;html=1;" edge="1" parent="1" source="aimmLDqsC0-W3VsYiJ3I-65">
          <mxGeometry relative="1" as="geometry">
            <mxPoint x="-700" y="330" as="targetPoint" />
          </mxGeometry>
        </mxCell>
        <mxCell id="aimmLDqsC0-W3VsYiJ3I-65" value="String[][] dataMahasiswa" style="shape=hexagon;perimeter=hexagonPerimeter2;whiteSpace=wrap;html=1;fixedSize=1;" vertex="1" parent="1">
          <mxGeometry x="-760" y="190" width="120" height="80" as="geometry" />
        </mxCell>
        <mxCell id="aimmLDqsC0-W3VsYiJ3I-72" value="" style="edgeStyle=orthogonalEdgeStyle;rounded=0;orthogonalLoop=1;jettySize=auto;html=1;" edge="1" parent="1" source="aimmLDqsC0-W3VsYiJ3I-70" target="aimmLDqsC0-W3VsYiJ3I-71">
          <mxGeometry relative="1" as="geometry" />
        </mxCell>
        <mxCell id="aimmLDqsC0-W3VsYiJ3I-70" value="inputNilaiMahasiswa" style="shape=process;whiteSpace=wrap;html=1;backgroundOutline=1;" vertex="1" parent="1">
          <mxGeometry x="-780" y="330" width="160" height="70" as="geometry" />
        </mxCell>
        <mxCell id="aimmLDqsC0-W3VsYiJ3I-74" value="" style="edgeStyle=orthogonalEdgeStyle;rounded=0;orthogonalLoop=1;jettySize=auto;html=1;" edge="1" parent="1" source="aimmLDqsC0-W3VsYiJ3I-71" target="aimmLDqsC0-W3VsYiJ3I-73">
          <mxGeometry relative="1" as="geometry" />
        </mxCell>
        <mxCell id="aimmLDqsC0-W3VsYiJ3I-71" value="tampilkanNilaiMahasiswa(dataMahasiswa" style="shape=process;whiteSpace=wrap;html=1;backgroundOutline=1;" vertex="1" parent="1">
          <mxGeometry x="-800" y="470" width="290" height="70" as="geometry" />
        </mxCell>
        <mxCell id="aimmLDqsC0-W3VsYiJ3I-76" value="" style="edgeStyle=orthogonalEdgeStyle;rounded=0;orthogonalLoop=1;jettySize=auto;html=1;" edge="1" parent="1" source="aimmLDqsC0-W3VsYiJ3I-73" target="aimmLDqsC0-W3VsYiJ3I-75">
          <mxGeometry relative="1" as="geometry" />
        </mxCell>
        <mxCell id="aimmLDqsC0-W3VsYiJ3I-73" value="cariHariNilaiTertinggi(dataMahasiswa)" style="shape=process;whiteSpace=wrap;html=1;backgroundOutline=1;" vertex="1" parent="1">
          <mxGeometry x="-800" y="580" width="290" height="70" as="geometry" />
        </mxCell>
        <mxCell id="aimmLDqsC0-W3VsYiJ3I-78" value="" style="edgeStyle=orthogonalEdgeStyle;rounded=0;orthogonalLoop=1;jettySize=auto;html=1;" edge="1" parent="1" source="aimmLDqsC0-W3VsYiJ3I-75" target="aimmLDqsC0-W3VsYiJ3I-77">
          <mxGeometry relative="1" as="geometry" />
        </mxCell>
        <mxCell id="aimmLDqsC0-W3VsYiJ3I-75" value="tampilkanMahasiswaNilaiTerendah(dataMahasiswa)" style="shape=process;whiteSpace=wrap;html=1;backgroundOutline=1;" vertex="1" parent="1">
          <mxGeometry x="-800" y="730" width="290" height="70" as="geometry" />
        </mxCell>
        <mxCell id="aimmLDqsC0-W3VsYiJ3I-80" value="" style="edgeStyle=orthogonalEdgeStyle;rounded=0;orthogonalLoop=1;jettySize=auto;html=1;" edge="1" parent="1" source="aimmLDqsC0-W3VsYiJ3I-77" target="aimmLDqsC0-W3VsYiJ3I-79">
          <mxGeometry relative="1" as="geometry" />
        </mxCell>
        <mxCell id="aimmLDqsC0-W3VsYiJ3I-77" value="nilaiMahasiswa, hariNilaiTertinggi, nilaiTerendah" style="shape=parallelogram;perimeter=parallelogramPerimeter;whiteSpace=wrap;html=1;fixedSize=1;" vertex="1" parent="1">
          <mxGeometry x="-722.5" y="856.25" width="135" height="75" as="geometry" />
        </mxCell>
        <mxCell id="aimmLDqsC0-W3VsYiJ3I-79" value="end" style="ellipse;whiteSpace=wrap;html=1;" vertex="1" parent="1">
          <mxGeometry x="-695" y="1008.75" width="80" height="51.25" as="geometry" />
        </mxCell>
      </root>
    </mxGraphModel>
  </diagram>
</mxfile>
